<?xml version="1.0" standalone="no"?>
<!DOCTYPE svg PUBLIC "-//W3C//DTD SVG 20010904//EN"
 "http://www.w3.org/TR/2001/REC-SVG-20010904/DTD/svg10.dtd">
<svg version="1.0" xmlns="http://www.w3.org/2000/svg"
 width="734.000000pt" height="734.000000pt" viewBox="0 0 734.000000 734.000000"
 preserveAspectRatio="xMidYMid meet">

<g transform="translate(0.000000,734.000000) scale(0.100000,-0.100000)"
fill="#ffffff" stroke="none">
<path d="M2615 6510 c-32 -12 -47 -36 -47 -76 0 -56 30 -80 108 -87 65 -6 173
-50 181 -73 2 -6 -25 -19 -59 -29 -446 -132 -884 -392 -1218 -725 -729 -727
-983 -1769 -664 -2728 101 -304 253 -581 458 -835 l86 -108 -22 -32 c-12 -18
-55 -76 -94 -129 -97 -130 -125 -222 -105 -334 32 -171 173 -306 351 -334 38
-6 295 -10 625 -10 l560 0 85 -25 c464 -136 1071 -143 1540 -17 l135 36 610 6
c648 6 637 6 740 57 62 32 145 116 173 177 50 105 53 224 9 320 -13 28 -60
101 -105 162 -45 61 -82 118 -82 126 0 8 9 23 20 33 32 29 161 200 222 295
236 362 373 753 419 1190 17 164 7 512 -20 669 -80 468 -268 886 -567 1261
-94 118 -309 331 -432 428 -279 221 -630 408 -957 508 -49 15 -92 29 -94 31
-3 2 4 10 15 18 42 32 109 56 169 62 70 6 100 25 111 70 9 33 -12 72 -48 92
-37 21 -164 2 -253 -38 -78 -36 -179 -128 -218 -199 -58 -107 -57 -76 -57
-1300 0 -838 3 -1129 12 -1145 6 -12 383 -533 838 -1157 454 -624 834 -1147
844 -1162 10 -15 20 -53 22 -85 4 -49 1 -66 -23 -113 -37 -72 -89 -108 -173
-121 -42 -6 -784 -9 -2095 -7 l-2030 3 -48 23 c-107 53 -157 181 -109 285 9
20 334 469 722 996 l705 960 228 0 229 1 29 29 c38 38 38 74 0 112 l-29 29
-161 0 c-89 0 -161 2 -161 5 0 3 34 50 75 106 l75 100 0 65 0 64 89 0 c88 0
90 0 116 32 21 25 25 38 21 62 -12 57 -36 71 -136 74 l-90 4 0 169 0 169 78 0
c87 0 121 13 140 54 16 32 9 69 -18 96 -17 17 -34 20 -110 20 l-90 0 0 170 0
170 84 0 c68 0 88 4 109 20 45 36 44 102 -2 137 -10 8 -51 12 -103 13 l-88 0
0 149 0 149 90 4 c108 4 135 21 135 88 0 62 -20 74 -128 80 l-92 5 -5 270 -5
270 -37 78 c-64 134 -181 227 -330 262 -69 16 -122 18 -153 5z"/>
<path d="M3333 2770 c-87 -31 -160 -96 -204 -182 -33 -65 -37 -176 -9 -250 28
-76 104 -159 177 -195 80 -38 203 -44 286 -13 123 46 210 146 230 264 10 57 9
77 -6 133 -30 113 -121 212 -229 247 -68 22 -180 20 -245 -4z m200 -164 c72
-30 117 -114 103 -191 -8 -43 -59 -103 -103 -121 -117 -49 -252 34 -253 154 0
125 133 209 253 158z"/>
<path d="M4351 2265 c-139 -39 -221 -145 -221 -286 0 -116 94 -238 209 -270
25 -8 75 -13 110 -12 128 2 253 98 282 216 53 221 -156 414 -380 352z m139
-180 c118 -61 78 -225 -55 -225 -135 0 -174 172 -51 226 41 17 71 17 106 -1z"/>
</g>
</svg>
