<?xml version="1.0" standalone="no"?>
<!DOCTYPE svg PUBLIC "-//W3C//DTD SVG 20010904//EN"
 "http://www.w3.org/TR/2001/REC-SVG-20010904/DTD/svg10.dtd">
<svg version="1.0" xmlns="http://www.w3.org/2000/svg"
 width="900.000000pt" height="900.000000pt" viewBox="0 0 900.000000 900.000000"
 preserveAspectRatio="xMidYMid meet">

<g transform="translate(0.000000,900.000000) scale(0.100000,-0.100000)"
fill="#ef3a48" stroke="none">
<path d="M0 4500 l0 -4500 4500 0 4500 0 0 4500 0 4500 -4500 0 -4500 0 0
-4500z m7520 2064 c0 -4 -17 -23 -39 -43 -21 -20 -78 -79 -127 -131 -48 -52
-129 -138 -179 -191 -49 -52 -121 -129 -160 -170 -137 -146 -221 -236 -315
-334 -52 -55 -162 -172 -245 -260 -82 -88 -197 -209 -255 -270 -59 -60 -219
-229 -356 -375 -137 -146 -432 -458 -654 -694 -223 -236 -488 -517 -589 -625
-101 -108 -234 -248 -295 -311 -61 -64 -240 -253 -397 -420 -623 -664 -711
-755 -730 -758 -13 -2 -45 19 -92 61 -39 35 -139 120 -222 189 -240 202 -532
447 -930 784 -115 97 -222 186 -237 197 -31 23 -35 42 -14 66 7 9 60 120 116
246 117 263 161 361 253 565 35 80 139 312 230 515 164 367 465 1038 505 1125
72 156 342 763 342 768 0 4 9 22 20 40 l20 32 2175 0 c1196 0 2175 -3 2175 -6z"/>
</g>
</svg>
